<svg width="20" height="20" viewBox="0 0 20 20" fill="none" xmlns="http://www.w3.org/2000/svg">
<g clip-path="url(#clip0_817_1598)">
<path d="M18.1073 14.9991L11.441 3.33315C11.2957 3.07666 11.0849 2.86333 10.8302 2.71491C10.5755 2.56648 10.2859 2.48828 9.99112 2.48828C9.69631 2.48828 9.40678 2.56648 9.15207 2.71491C8.89735 2.86333 8.68656 3.07666 8.54121 3.33315L1.87493 14.9991C1.72801 15.2536 1.65096 15.5424 1.65162 15.8362C1.65227 16.13 1.73058 16.4184 1.87863 16.6722C2.02668 16.926 2.2392 17.1362 2.49464 17.2814C2.75008 17.4265 3.03937 17.5016 3.33318 17.499H16.6657C16.9581 17.4987 17.2453 17.4215 17.4984 17.2751C17.7515 17.1287 17.9617 16.9183 18.1077 16.665C18.2538 16.4117 18.3307 16.1244 18.3306 15.832C18.3305 15.5396 18.2535 15.2524 18.1073 14.9991Z" stroke="#E50E1A" stroke-width="1.66657" stroke-linecap="round" stroke-linejoin="round"/>
<path d="M9.99939 7.5V10.8331" stroke="#E50E1A" stroke-width="1.66657" stroke-linecap="round" stroke-linejoin="round"/>
<path d="M9.99939 14.166H10.0077" stroke="#E50E1A" stroke-width="1.66657" stroke-linecap="round" stroke-linejoin="round"/>
</g>
<defs>
<clipPath id="clip0_817_1598">
<rect width="19.9988" height="19.9988" fill="white"/>
</clipPath>
</defs>
</svg>
