<svg width="18" height="18" viewBox="0 0 18 18" fill="none" xmlns="http://www.w3.org/2000/svg">
<path d="M8.99371 14.9893H15.739" stroke="#6B7280" stroke-width="1.49895" stroke-linecap="round" stroke-linejoin="round"/>
<path d="M12.2734 2.715C12.5717 2.41664 12.9764 2.24902 13.3983 2.24902C13.8203 2.24902 14.2249 2.41664 14.5233 2.715C14.8216 3.01336 14.9893 3.41802 14.9893 3.83996C14.9893 4.2619 14.8216 4.66656 14.5233 4.96492L5.5221 13.9669C5.3438 14.1452 5.1234 14.2756 4.8813 14.3461L2.72881 14.9741C2.66432 14.993 2.59596 14.9941 2.53088 14.9774C2.4658 14.9607 2.40641 14.9269 2.3589 14.8794C2.3114 14.8319 2.27754 14.7725 2.26087 14.7074C2.2442 14.6423 2.24533 14.574 2.26414 14.5095L2.89219 12.357C2.96281 12.1152 3.09324 11.895 3.27143 11.7169L12.2734 2.715Z" stroke="#6B7280" stroke-width="1.49895" stroke-linecap="round" stroke-linejoin="round"/>
</svg>
