<svg width="18" height="18" viewBox="0 0 18 18" fill="none" xmlns="http://www.w3.org/2000/svg">
<g clip-path="url(#clip0_130_2554)">
<path d="M5.99581 16.4882C6.40974 16.4882 6.74529 16.1527 6.74529 15.7387C6.74529 15.3248 6.40974 14.9893 5.99581 14.9893C5.58189 14.9893 5.24634 15.3248 5.24634 15.7387C5.24634 16.1527 5.58189 16.4882 5.99581 16.4882Z" stroke="white" stroke-width="1.49895" stroke-linecap="round" stroke-linejoin="round"/>
<path d="M14.24 16.4882C14.6539 16.4882 14.9895 16.1527 14.9895 15.7387C14.9895 15.3248 14.6539 14.9893 14.24 14.9893C13.8261 14.9893 13.4905 15.3248 13.4905 15.7387C13.4905 16.1527 13.8261 16.4882 14.24 16.4882Z" stroke="white" stroke-width="1.49895" stroke-linecap="round" stroke-linejoin="round"/>
<path d="M1.53644 1.53613H3.03539L5.02899 10.8446C5.10212 11.1855 5.29181 11.4903 5.5654 11.7064C5.83898 11.9225 6.17936 12.0365 6.52794 12.0288H13.8578C14.1989 12.0282 14.5297 11.9113 14.7954 11.6974C15.0611 11.4834 15.2459 11.1853 15.3193 10.8521L16.5559 5.2835H3.83732" stroke="white" stroke-width="1.49895" stroke-linecap="round" stroke-linejoin="round"/>
</g>
<defs>
<clipPath id="clip0_130_2554">
<rect width="17.9874" height="17.9874" fill="white"/>
</clipPath>
</defs>
</svg>
